<svg xmlns="http://www.w3.org/2000/svg" viewBox="0 0 5e3 3820.6" width="100%" height="auto" role="img" aria-label="Yoga silhouette" preserveAspectRatio="xMidYMid meet">
  <title>Yoga silhouette</title>
  <g fill="currentColor" stroke="none">
    <path d="m4999.9 280.7c-7.4-19.5-33.8-61.6-38.5-69.6-12.9-22-19.3-26.7-25.5-36.9-16.8-27.4-26.5-31.1-29.9-39.1-2.9-6.7-17.1-23.6-21.5-25.4-2.5-1.1-4-2.7-4-4.4 0-3.4-20-24.2-24.3-25.2-1.7-0.4-5-3.2-7.3-6.1-4.7-6-23.5-19.1-27.3-19.1-4.2 0-26.9-13.2-31.8-10.2-0.8 0.5-4.7 0.2-8.5-0.7-6.8-1.6-7.6-1.5-22.8 4-18.4 6.6-15.7 5.9-22.8 5.7-10.7-0.3-13.7-12.8-29.2-20.4-4.1-2-9.4-5.3-11.7-7.4-5.6-4.9-23.9-14.8-27.4-14.9-1.5 0-6.4-1.8-11-3.9-23.9-11.2-53.1-8.8-71.1 5.8-16.4 13.3-17.1 5.4-26.4 28.8-3.4 8.5-4.3 9.6-9.6 11.9-6.7 2.9-9.3 6.2-12.1 15.5-3 9.9-12.9 16.5-22.8 31.1-3 4.5-7.1 9.2-9 10.5-4.7 3.3-23.9 28.8-23.9 31.8 0 4-7.3 6.8-9 15.7-1.6 8.9-1.5 6.6-1.8 9-0.7 4.9-53.8 22.6-29.7 54.2l4.7 6.1c-8.6 10.9-7.2 4.6-13.7 9.5-12.5 9.6-86.3 29.3-86.3 23 0-5.5-3.3-6.8-10.9-4.3-6 2-7.8 2.1-10.5 0.6-5.2-2.8-26.5 5.2-34.8 13-27.3 25.7-190.6 34.5-417.8 136.3-128 57.4-253 186.4-294.5 203.8-2.7 1.1-6.4 4-8.2 6.4-4.3 5.9-47.1 36.3-74.3 52.9-41 25-74.7 30.5-104.5 36.2-65.5 12.3-61.9 8.7-70.9 11.8-2.9 1-12.5 3.2-21.4 4.8-90.7 16.3-300.5 98.1-379.7 100.5-11.5 0.4-17.7 1.2-20.7 2.7-5.5 2.9-25.7 5.6-33.7 4.5-4.2-0.5-8.5-0.1-12.5 1.2-8.8 3-10.9-0.1-20.9 2.1-32.5 7.2-67.3 4.8-117.4 15.5-31.2 6.6-38.7 7.8-115.8 24.3-63.7 13.7-81.5 31.4-89.6 31.5-5.3 0.1-18.7 15.1-31.6 15.1-4.4 0-21.1 8.2-23.6 8.2-5.3 0-42 21.9-43.8 21.9-2.1 0-13.7 5.6-14.5 7-0.5 0.8-4.1 2.8-8 4.6-13.6 6-10 11.8-19.9 11.8-8 0-8.6 2.9-24.2 4.2-26.5 2.2-33.9 15-51.1 15.1-9 0-20.1 2.7-26.2 6.3-5 2.9-40.9 1.1-52.3-2.7-13.8-4.6-26.8-9.7-56.9-19.6-43.3-14.1-38-20.3-59.7-20.4-24.6-0.2-18.5-8.9-27.3-8.9-6.1 0-12.2-12.3-16.4-12.3-3.3 0-18.2-6.9-22.4-6.9-4.4 0-20.2-11-22.5-11-0.8 0-3.1-2.4-5.1-5.4-5.9-8.9-31.7-25.7-49.6-32.3-9.3-3.4-12.2-7.9-20.2-10.6-34.9-12.1-24.9-3.9-35.1-10.4-13.4-8.6-47-14.6-58.5-22.6-23.4-16.2-28-18.7-44.5-24.2-9.4-3.1-21.9-6.4-27.8-7.2-9.8-1.4-14.8-3.8-7.9-3.8 2.2 0 2.6-0.6 2-2.6-1.4-4.3 3.4-2.6 3.4-6 0-2.3 7.9-17.1 9.7-18.2s0.9-7 2.2-5.7c1.2 1.2 5.9-4.4 6.8-8.2 1.1-4.2 2.7-2.3 3.6-5.9 1.2-4.4-0.1-3.2-5.3 4.9-5.6 8.7-6.4 8.9-4.6 1.2 1.8-7.8 0.8-16 2.6-17.9 1.9-2-2.8-14.3-1.7-16 0.3-0.6-0.5-0.6-1.8-0.1-2.8 1-0.2-3.2 3.4-5.5 2.4-1.5 0.7-3 4.5-7.8 4.9-6.3 3-7.3-4.1-2.1-3.8 2.8-7.5 4.6-8.3 4.1-0.9-0.5-1.3-0.1-1.1 1.1 1.3 6.1-18.6 32-22.1 28.6-4.9-4.8-14.9-12.5-16.4-12.5-0.9 0-1.6-0.2-1.6-0.3-1.5-10-3.1-29.1-18.6-49.9-1.8-2.4-2.8-4.7-2.3-5.1 0.9-0.9-6.2-7-8.5-7.2-2.4-0.2-14.7-6.9 0.3 7.3 7 6.7 16.8 20.9 17.8 25.7 3 15.6 7.3 26.5-1 24.7-9.6-2.1-28.7 8.9-28.7 16.5 0 5.4-6.8-0.5-7-5.9-0.1-3.2-0.2-3.3-1.1-1-1 2.5-1.2 2.5-3.5-1-1.3-2-3-3.4-3.6-3-1.6 1-4.7-5.8-8.8-9.2-3.8-3.2-2.1-4.2 7.5-4.4 7.2-0.1 8.2-0.5 7.5-2.6-0.6-1.9 0-2.4 2.8-2.4 5 0 4.4-2.5-0.7-3l-4.2-0.4c6.1-7 7.9-8.5-0.5-5.5-14.3 5.1-24.8 2-20.6-6 3.6-6.9 1.2-11.9 3.6-8.4 2 2.8-0.5 1.6 1.1-17.1 2.2-25.3-3-47.6-13.8-60-4.6-5.2-3.4-2.1 3.2 8.3 5.6 8.8 2.7 9.5 6.1 19.3 3 8.7 1.5 52.4-5 28.7-8.3-30.5-12.3-20.9-12.3-27.8 0-3.2-3.2-5.6-5.6-4.1-1.5 0.9-1.6-0.2-1.3-11.7 0.6-22.7-10.9-46.2-10.9-53.3 0-7.5-10.5-13.3-5-7.3 2.5 2.8 3.1 8.5 0.8 8.5-0.9 0-1.1 1.2-0.5 2.9 1.8 5.5-3.5-1.7-1.6 3.2 1.3 3.4-2.7 5.9-1.2 7.3 0.5 0.5 1.9-0.2 2.9-1.6 2.4-3.3 3.4-2.4 4.8 5 1.7 8.9 3.8 11.6 1.5 10.2-2-1.2-2-0.8 0 6.9 2 8 0 10.5-4.1 5.2-4.2-5.3-3.9-0.2 0.5 2.7 1.9 1.2 3.4 3.2 3.4 4.4 0 1.7-0.7 1.6-3.6-0.7-4.6-3.6-5.8-2.7-2 1.5 3 3.2 3.1 3.6 3.6 9.4 0.7 8.6 5.9 8.3-7.4 7.8-2.5-25.3-0.2-47.8-2.1-43.5-2.4 5.3-3.2-2.6-2.6 22.7 0.3 10.9 0 19.8-0.6 19.7s-2.9 0.5-5.1 1.4c-16.9 7-27.6 4.8-24.3-4.9 4.2-12.3 9.3-34.1 12.2-38.5 1.1-1.7 1.7-3.5 1.3-3.9-1.2-1.2 3.5-11.6 2.6-12.5-1.1-1.1-3.5 1.1-3.5 3.2 0 2.4-2.3 2.6-3.2 0.3-1-2.4-0.4 9.9-2.3 9.9-0.8 0-1.4 1.8-1.4 4 0 6.7-7.6 28.9-9.9 28.9-0.6 0-1 0.8-1 1.8 0 2.4-9.2 19.5-10.6 19.6-0.6 0-3.5 0.8-6.5 1.7-6.3 1.8-7.3 1.5-7.4-2.8-0.2-6.8-4.6-17.8-3-27.2 3.9-23.2 9.1-29 4.2-23.2-3.8 4.6-3.4 4.9-1.4-1 2.1-6.3 4-3.4 4-7s4.7-5.7 7.9-11.9c2.6-5 15.8-17.7 22.3-21.4 17.5-10 20.1-12.2 14.3-12.2-17 0-56.8 39.5-56.8 56.4 0 1-1.1 0.7-2.9-0.9-8.7-7.8 4.8 2.1-1.6 13.8-1.4 2.6-1.5 2.6-2.5-0.7-2.7-9.4 1.1 4-3.5 2.2-1.8-0.7-1.9-0.5-0.7 1 2.5 3-1.5 9.8-0.2 11 1 1-2.3 4.3-5.7 18.8-7.9 33.5-4.1-15-1.4-24.6 2.4-8.7 2.6-11 0.8-11-3.1 0-9.1 33.8-7.6 42.7 1.3 7.5 0.5 6.5-19 4.6l0.3-9.1c0.8-22-7.9-26.3-13.8-6.8-2.8 9.3-4.5 7.5-14.2 2.6 1.4 1.6 4.8 5.9 7 5.9s4.8 3.6 1.5 2.3c-2.5-1-5.8 3.6-4.3 5.9 1 1.6-0.5 5.5-1 7.3l-2.5-3.3c-3.2-4.3-5.7-2.6-1.2 2.5 3.3 3.7 3.2 3.7-1.1-0.2-2.4-2.2-4.1-4.5-3.7-5.1 0.9-1.5-10.6-9-14.3-11.6-4.5-3.2-3-3.8 3.2-1.2 3.7 1.5 5.6 1.7 6.7 0.7 2.4-2.4-2.5 0.1-7.5-4.3-6.2-5.5 3.8 1.1 0.2-3.3-2.4-2.9-9.1-1.7-7.8-3 1.1-1.1-1.6-4.6-3.6-4.6-0.8 0-0.3 0.8 1.1 1.8 5.4 4-4.8 4.9-6.8-2.8-1.1-4.5-3.5-2.3-3.5-4.9 0-2.1-7.8-9.2-8.9-8.1-1.2 1.2 0 5.8-2.4 5.8-2.8 0-10.7-3.2-10.7-4.4 0-1.3-4.4-2-3.2 1 1.1 2.9-2.2 1.2-2.2 4 0 2.6-3 4.4-1.9 1.5 0.8-2.1-2.1-2.5-3.6-0.5-2.3 3.1-8.7 1.7-10-2.2-1-3-0.9-4.2 0.3-4.6 2.5-0.8-5.9-6.6-4.3-7.6 2-1.1 25.6-0.7 27.8 0.5 1.2 0.7 3.8 1.5 5.6 1.8 6.5 1.2 13.8 4.9 12.8 6.6-0.6 1-0.4 1.2 0.6 0.7 2.2-1.3 7.1 2.5 7.1 0.9 0-1.2-13.8-8.4-22.6-11.8-6.5-2.5-30.7-4.1-33.1-2.1-1.5 1.3-10.1-7.2-10.1-10 0-1.6 2.5-1.2 3 0.5 0.7 2 6.7 0.2 9.8-0.5-12.1-4.4-14.2-5.9-14.2-3.9 0 2.1-3.1 0.4-1.9-1.6 2.1-3.3-5.6 6-4.7-11.6 0.4-7.1 0.7-8 3.2-7.5 7.9 1.4-12.2-8 5.5-10.3 5.8-0.8 7.7 1.9 3.6 5.2-3.5 2.8-3.8 5.7-0.9 8.1 1.7 1.4 2.1 1.3 2.1-0.4 0-1.2-0.6-2.5-1.3-3-1.5-0.9 2.3-5.2 6.6-7.5 2.3-1.2 3.6-0.8 8 3 2.9 2.5 4.3 3.4 3.3 2-6.4-8.1 10.3 1.1 17 4.6-3.7-3.3-7.9-7.6-16.3-10.8-12.6-4.8-24.7-22.4-31.6-26-2.3-1.2-2.4-1.7-0.9-3.6 1.1-1.4 1.3-2.2 0.3-2.2-1.9 0-6.6-11-8.2-14.1-2.2-4.3 3.1 0.4 6.6 5.9 4.5 7 6.9 8.6 3.7 2.5-4.5-8.6-30.7-31.8-45.6-40.3-3.8-2.1-8.6-5.3-10.7-7.1-5.8-4.7-7.1-2-9-5.6-1.9-3.5-15.2-11.3-15.2-13.4 0-3.8-11.3-8-1-9.1 13.7-1.4 34.2 32.1 22.1 13-4.2-6.6-17.4-17.6-22.9-19-4.1-1-4.8-4-1.4-5.9 1.6-0.9 1.9-2.1 1.2-3.8-1-2.4-1.2-2.3-1.9 0.6-1.2 4.5-3.8 2.6-3.2 4.6 1 3.4-16.7-5.7-24-12.4-2.4-2.2-4.6-3.8-5-3.4-1 1-10.2-5-11.1-7.1-0.6-1.6-0.2-1.6 2.6 0.2 4.2 2.8 4.4 0.8 0.3-4.4-4-5.1-4.4-4.9 0.6-1.2 3.7 2.8 6.1 7.5 3.7 7.5-1.2 0-2.2 2.5 6 2 3.2-0.2 8 0.5 10.6 1.6 9.1 3.7-1.1-1.9 0.6-4.8 1.2-1.9-3.3-2.2-3.3-4.4 0-1 0.8-1 2.7 0 3.9 2.1 5.6 1.7 4.6-0.9-0.6-1.5-0.3-2 0.7-1.3 0.9 0.5 1.6 0.4 1.6-0.4 0-2-2.4-3.2-3-1.5-0.8 2.4-7-1.4-11.4-7-12-14.9-26.8-15.4-50.8-21.8-13.1-3.5-46-6.4-46-4.1 0 0.5-3.9 1.6-8.6 2.6-22.7 4.7-27 13.7-29.1 13.7-1.7 0-9 7.4-9 9.1 0 1-0.7 1.8-1.5 1.8-2.4 0 0.7-7.4-1.3-11.7-2.8-5.8 1.3 4.2-1.8 3-2.2-0.8-1.4 4-0.8 12.1-0.6-2.2-3.8-12.1-2.3-13.2 1.8-1.3-0.3-3.9-2.4-3.1-1.8 0.7-2.1 9.6-0.5 14.3 2.3 6.7 3.6 13.1 2.7 13.4-4 1.5-4.7 2.7-2.9 5.6 3.2 5.1-1.6 5.1-1.6 11.1 0 5.6-9.9 1.7-5.4-1.9 3.7-2.9 5.8-7.9 3.9-9.1-3-1.8-10.2 10.3-8.6 14.5 1.4 3.7-3.6-0.3-3.6 5.5 0 3.5-4.5 5.8-8.5 4.5-3.3-1.1-12.1 3.9-16.1 1.7-1.3-0.7-2.8-1-3.2-0.5-0.4 0.4-0.4-0.5 0-2.1 1.3-5-4.1-1-5.6-5-0.8-2.2-7.6-5.4-8.8-4.2-0.4 0.4 0.5 1.1 1.9 1.6 4.5 1.7 11.4 9.4 7.3 8.1-5-1.5-10.2-2.3-10.2-4.8 0-2.4-4.3-4.4-2.9-0.8s-1.4 0.7-5.8 0.7c-1.3 0-3.6-1-5-2.1-2.5-2-2.2-2.1 3.5-1.2 13.6 2-4.2-5.4-6-2.4-1.1 1.8-9-1.2-23.8-1.4-13-0.2-7.2-2.5-18.9-2-10.6 0.4-7.8 1.8-16 2.1-13.3 0.6-28.4 6.9-38.2 15.9-5.7 5.2-15.4 9.7-18.5 8.5-5.5-2.1-38.1 26.2-37 27.9 0.4 0.6-0.6 0.8-2.1 0.4-2.9-0.7-15 9.6-15 12.7 0 0.8-1.1 2.7-2.5 4.1-2.9 3.2-7.1 13.2-7.1 17.1 0 1.9-4.3 5.9-13.4 12.6-17.1 12.6-11.6 9.5-23.9 21.8-5 5-8.4 9.6-8.5 11.5-0.1 1.8-0.7 2.9-1.2 2.6-0.6-0.3-1 0.3-1 1.5 0 2.5-2.7 2.9-2.8 0.4-0.1-8-19.1 32.3-18.1 71 0.4 14.9 0.2 16.2-1.6 13.7-2-2.7-2.1-2.7-1.3 0.3 1.1 4.2 2.2 0.9 6.2 9.3 1.6 3.4 3.6 6.2 4.2 6.2 3.6 0-0.7 30.6-4.7 34-3.9 3.3-5.3 7.2-2.6 7.2 1.8 0 0.5 1 2 4.5 1.8 4.1 0.6 4.1-26.3 1.2-96.2-10.6-83.1-2.1-148.6-29.7-44.6-18.8-34.5-12.4-165.3-37-82.6-15.6-140.9-6.1-197.5-18.7-29.9-6.7-38.6-8.2-42.8-7.4-3.1 0.6-6.9-0.2-12.7-2.7-12.4-5.2-10.7-1.9-20.4-6.8-13.1-6.6-18.7-6.9-35.9-18.5-34.7-23.2-38.8-1.9-48.8-5.7-5.1-1.9-5.9-1.7-9.9 2.7-4.5 5-21.2 11.6-24.7 9.9-24.4-12.6-37.5-5.8-23.7 12.4 3.1 4 5.6 8.1 5.6 9 0 4.1 4.6 12.5 7.7 14.1 16.1 8.6-55.1 10.4-24.7 40.8 5.2 5.2 5.4 5.2 21.8 0.4 5.3-1.6 11.1-3.2 13-3.6 6.9-1.6-1.2 3.2-12.1 7.1-22.2 8-34.3 17.9-32.2 26.3 3.7 14.9 17.6 19.2 34.4 10.7 29.4-14.8 28.4-11.7 40.8-15.9 32.2-11.1 15.9 19.9 35.8 49.7 12.2 18.3 31.3 25.7 42.1 16.3 4.9-4.3 22-11.1 28-11.1 5.1 0 22.3 11.8 32.3 22 11.8 12.1 48.8 38.5 66.8 47.5 18.1 9.1 38.1 10.8 66.6 5.7 15-2.7 17.7-2.8 30.2-1.3 22.3 2.7 102.7 22.2 116.5 28.3 2.3 1 12.2 4 22 6.7 43.4 11.9 92.9 35.4 168.6 57.7 42.7 12.6 51.7 15.9 80.4 29.4 35.5 16.8 91.4 33.1 152.7 44.7 33.9 6.4 8.4 3.5 32.1 19.8 6.4 4.4 10.1 8.1 12.3 12.3 9.1 17.5 13.6 8.8 33.6 16.6 2.3 0.9 5.9 4.8 9.2 10 24.1 38.2 71.1 28.2 112.4-23.9 5.7-7.3 12-15.1 13.9-17.5 4-5.1 3.3-4.3 30-5.1 48.9 45.4 119.2 122 164.5 157.3 5.4 4.2 9.3 8.6 11.3 12.8 4.9 10.1 13.5 11.7 23.9 25.3 9.7 12.5 12.8 9.6 43.6 44.8 50.6 57.9 51.1 47 85.5 72.6 51.5 38.3 81.4 54 131 68.4 18.6 5.4 68.9 16.5 87.8 19.3 19.2 2.9 14.4 6.3 20.4 6.3 7.2 0 4.8 4.6 22.4 4.2 10.8-0.2 46 5.9 58 10.1 7.3 2.5 19.7 3.8 22.6 2.2 3.1-1.7 8 0.9 30.9 5.4 103.5 20.6 79.9 25.5 177 31.6 51.6 3.3 71.3 8.8 166.7 24.1 18.9 3 51.2 14 59.3 14.2 0.6 0 1 3.5 1 7.7 0 17.5 3.5 15.2 47.7 4.3 15.5 11.8 16 6.1 42.6 14.6 17 5.5 30.3 6.9 38.7 12.2 17.3 10.9 25.5 3.4 30.6 9.3 6.7 7.8 23.2-5 20.8 4.8-2.6 10.5 15.9 11 21.5 0.6 2.5-4.7 6.6-3.2 9.6 3.6 4.8 11.2 14.3 10.2 28.6 10.2-0.1 22.3-0.6 28.1 5.7 41.8 5.2 11.4 5.7 15.4 2.6 22.3-8.6 18.8-5.3 28.4-8 71-1 15.6-6.3 280.5 7 321.6 2.5 7.8 2.6 9 0.8 10.3s-1.8 1.7-0.1 3.4c3.2 3-0.8 6.9 3.2 12.4 2.3 3.3 2.4 4.3 0.6 13.8-3.3 18-2.6 27 4.4 56.2 7.6 31.5 10.8 94.5 5.9 113.9-0.9 3.4-1.5 7.2-1.3 8.5 0.9 9.5-0.6 70.1-1.8 72-0.5 0.8-0.2 4.3 0.7 7.6 1.4 5.4 1.3 6.9-1.2 12.8-7.4 17.4-8.5 54-2.1 71.8 5.4 15.2-3.3 12.2 0.2 29 4.2 20.4-2.6 13.7 7.4 51.4 11.5 43.6 0.9 39.6 10.4 57.9 17.2 33.4-5.9 24.4 2.2 54.8 3.3 12.5-1.3 33.2 0.2 42.3 1 6-2 13.4-2.6 26.8-6.1 137.1-6.7 50.7-8 246.9-0.4 63.2 2.2 33.4 3 52.2 0 0 0.1 63.1 0.6 94.5 0.5 29.4 0.2 36.7-1.3 39.1-1.3 1.9-1.8 6.4-1.7 13.2 0.2 9.3-0.2 11-4.2 17.9-5.4 9.4-5.5 11.3-0.4 20.8 2.2 4.2 3.7 7.9 3.3 8.3s-1.3 7.1-2 15c-3.3 38.5-15.7 32-7.5 44.2 1.9 2.8 3.2 5.6 2.8 6.2-1.2 1.9-2.4 17.3-6.2 24.6-7 13.9-11.1 38-7.8 46 4 9.6-3.8 57.9-13.4 82.8-5.8 15-12.8 20.9-24.7 20.9-11.5 0-12.9 5.5-20.2 5.5-10.2 0-29.9 31.5-32.2 51.4l-0.9 7.5-4-2.9c-16.1-11.5-72.4 36.9-72.4 62.2 0 7.3-4.3 17-9.4 21.2-6 5-17 11.4-19.5 11.4s-29.3 19.1-38.3 23.1c-14.4 6.3-38.8 18.6-61.7 26.4-40.7 13.7-56.7 26.3-89.8 32.9-7.6 1.5-15.9 3.4-18.4 4.3-4.4 1.4-23.5 17.6-24.7 20.9-1.8 5.1-12.4 10.9-9.4 39.4l1.4 12.9c3.2 3.2 26.6 26.8 29.7 26.8 2.9 0 5.7 2.6 5.7 5.3 0 3 6.6 8.5 10.1 8.5 1.7 0 7 2.5 11.7 5.6 13.2 8.6 10.2 2.2 15.8 5.8 6.8 4.4 55.8 11.9 58.4 13.3 10.4 5.5 80.3 6.6 111.1 11.6 16 2.6 114 3.3 126 0.9 15.7-3.2 53.2-2.2 65.4 1.7 53.6 17.1 127.2 13.9 172.2 1.7 16.8-4.5 67-25.3 72.6-30 2.1-1.8 9.5-5.3 16.3-7.8 16.1-5.8 16.2-5.9 17.1-23.7 2.5-45.9-18.3-35.5-17.2-43.1 2.2-16.4-3.4-15.3-3.9-32.8-0.4-14-1.5-20.8-4.7-55.5-2.9-31.3-5.2-37-22.1-52.8-13.8-13-14.9-15.8-12-31.1 4.6-24.7 4.6-24.4 0.2-29.4-7.4-8.5-12.5-3-15-10.3-2.4-7-6-1.2-3.7-7.9 3.2-9.2-5.5-122.7 8.3-134.6 6.6-5.7 4.6-15.5 9.3-32.6 2.9-10.9-2.1-27.2 2.3-32 4.2-4.6-0.7-16.7 2-26 4.9-16.7 1.2-27.6 25.9-134.4 37.5-161.7 58-134.7 67.8-318.3 0.9-16.9-2.2-98-2.3-110.4-0.1-10.3-8.1-95.4-9.9-105.7-4.1-23.1-9.1-58.7-13.2-93.9-2.8-23.9-3.1-67-0.5-72.8 1.9-4.3 2.3-7.5 1.6-16-1.1-13.9 1.4-21.5 5.2-46.3 10.3-66.5 11.5-73.5 31.5-164.6 10.5-47.9 13-33.9 13.7-51.2 0.5-12.6 3.3-16.4 18-69.5 6-21.7 10.9-39.6 19.7-68.6 5.1-16.7 26.2-98 26.2-98.1 1.6-4.8 2.7-13 7.5-34.3 4.5-20.2 5.8-45.5 7.9-51.4 4.2-12.1 9.9-121.4 16.6-169.4 2.9-20.7 5.8-56.7 8.5-72 4.9-28.6 6.8-87.2 14.4-140.6 1-7.3 15.5-107.3 16.5-111.8 6.7-29 6.3-79.1-0.7-101.4-1.2-3.7-2.1-7.5-2.1-8.4 0-3.8 83.1-43.6 176.3-103.7 53.9-34.8 266.2-114.3 333.4-154.5 106.5-63.8 117.9-81.5 134.4-89.4 12.9-6.1 52.1-22.9 91.8-59.4 50-45.9 11.5-25.3 89.5-90.5 28.3-23.6 74.9-66.4 115.8-86.8 0.1-0.1 38.4-23.4 85.1-44 131.2-57.8 203.2-115.9 213.5-115.9 2.4 0 9.4-7.5 24.2-14.5 12.3-5.9 28.3-15.1 46.3-21.9 19.9-7.6 21.3-10.8 30.8-12.1 9.7-1.3 14-7 22.1-8.2 11.2-1.6 35.2-13.5 40-19.6 3-3.9 5.8-5.2 20.8-9.9 54.7-17 50.2-12 90-20.9 20-4.4 22.6-4.7 29.1-2.3 3.6 1.3 5.9 1.3 11.1-0.2 13.2-3.7 13.5-3.7 20.9 3.2 7.8 7.3 21.9 14.5 28.3 14.5 9 0 33.3-9.3 37.4-14.3 4.4-5.3 3.3 2.6 7.8-9.7 0.8 1.6 4.4 8.9 5.9 8.9 4 0 26.3 31.5 53 11.7 3.2-2.4 3.9-1.9 55.7 34.6 7.8 5.5 15.5 9.9 17.2 9.9 3.6 0 28.2 14.3 42.3 24.6 9.6 7 13.3 8.1 14.1 4.1 0.5-2.4-16.6-14.6-35.1-25.3-7.8-4.5-12.4-8.1-14.6-11.6-5.2-8.2-32.2-24.9-70.5-54.4-3.7-2.8-4.5-4.3-3.9-7.2 0.9-4.5-6.5-14.1-13.9-18-7.9-4.2-0.6-1.1 2.5-4.8 2.5-3 3.5-0.9 10-4.4 5.1-2.7 11.8-2.1 28.9-1.6 8 7.3 24.6 23.3 36.2 24.8 9.9 1.3 49.9 31.6 53.8 30.9 13.1-2.5-39.7-28.5-45.1-38.7-2.4-4.5-11.5-8.1-15.2-11.2-9.2-7.8-32.3-14.7 0.9-15.1 19.8-0.2 14.7-3.1 24-3.1 6.8 0 17-3 22.4-6.5 5.2-3.4-3.1 0.8 47.6 0.8 35.9 0 47.3 1 68.6 6.2 20.6 5 47.6 1.1 57.4-8.2 1.9-1.8 5.9-4.2 8.9-5.4 6.3-3.7 18.6-18.1 17-22.4zm-3294.4 395.6c-0.6 0-6.1-5.5-4-5.5 2.2 0 4.6 5.5 4 5.5zm-843.7-179.1c-1.3 3.4-0.7 3.6-0.9 3.6 0 0.7-0.9 1.3-2 1.3-2.5 0-0.8-5.7 2-6.6 1.2-0.5 1.5 0.1 0.9 1.7zm126.6-59.6c-2.5-1.6-8.6-1.5-11.7-1.6 7.5-2.2 8.5-3 12.6 0.2 3.7 2.8 3 3.8-0.9 1.4zm23.9 3.9c-1.6-2.6 4.9 1.3 4.9-1.2 0-1.5 2-1.2 9.5 1.6 10.2 3.8-11.5 4.2-14.4-0.4zm131.1-53.4c-5.7 0.2-6.8 4.6-6.8 1.8 0-2.5 4.5-4.2 7.5-3 2.5 1 2.4 1.1-0.7 1.2zm5.5-4c-3.7 0-1.9-2.7 0.8-2.7 2.6-0.1 2.9 2.7-0.8 2.7zm10.8-1.2c0.2 0-4.2 2.6-5.9-0.1-1.9-3.1 9.7-2.3 5.9 0.1zm27.3 9.4c-2 0-3.9-0.5-4.3-1.2-0.8-1.3 5.8-0.9 7.1 0.4 0.2 0 0.4 0.8-2.8 0.8zm12.3-5.6c-7.7-1.7-8.5-4-1.3-4 3 0 14 4.8 14 6.2 0.1 1.2-2.4 0.1-12.7-2.2zm25.8 19.3c-1.7 0-9.1-3.7-10.9-5.5-5.2-5.2 13.5 5.4 10.9 5.5zm1.3-2.8c-2 0.1-7.2-4-5.3-4 1.9-0.1 7.1 4 5.3 4zm-0.5-9.1c-10.8-10.1-5.6-3.1-14.5-8.2-6.4-3.7-3.3-4.3 5.5-1.1 7.4 2.7 13.5 1.6 12.4 3.3-0.7 1.1 9 7.7 18.5 12.5 4.6 2.3 4.3 2.8 0.7-1.4-3.8-4.3-18.5-9.7-16.3-10.5 2.9-1 14 5.2 19 10.7 4.6 5.1 6.1 8.3 3.8 7.9-5.8-0.9 0.7 4.1 0.2 4.1 5 5.3 2.3 6.7-3.5 1.9-2.5-2.1-4-3-3.5-2.1 1.3 2.1-1.5 2.9-2.6-1.4-1.1-4.5-8.6-5.3-19.7-15.7zm28.9 39.9c-9.8-9.6 1.5-1.2 5.1 2.8 5.7 6 1.8 3.9-5.1-2.8zm18.1 6.8c2-2 10.3 3.3 8.8 3.3 0.3 1-0.5 1.7-1.9 1.7-3.2-0.1-8.2-3.8-6.9-5zm29.4 46c-3.9-2.3-7.6-10.2-3.8-8.1 4.1 2.2-0.2 3.1 4.4 6.9 3.4 2.9 3.2 3.5-0.6 1.2zm41.5 17.6c4.8 4.6 1.8 6.4-2.1-1-0.6-1.1 0.4-0.7 2.1 1zm4.7 22.3c-1.1 0-2-0.9-2-1.9 0-1.1-6.3-8.4-14.1-16.2-33.2-33.8-21.7-27.1-16.9-21.8 1.4 1.6 3.1 2.5 3.8 2.1 4.4-2.7 21.5 15.8 27.9 30.3 2.7 6.1 3 7.5 1.3 7.5zm4.9-3.6c-4.7-10.7-3.4-14.7 3.6 1.8 2.9 7.1-0.4 5.4-3.6-1.8zm4.7 22.5c1 2.7-1.1 2.6-1.6-6.2-0.6-11.1 1.3-1.7 6.5-0.5 3.4 0.8 5.6 3.3 4.8 5.4-0.5 1.3-0.1 1.7 1.1 1.3 2.4-0.9 10 7.5 12.4 10l-17.1-0.6c-6.4-14.6-7.6-13.4-6.1-9.4zm4.9 64.6c0-2 4.7 1 4.7 2.4 1.7 4.6-4.7-0.1-4.7-2.4zm6.6 11.4c-0.4 2.9-0.6 2.9-1.5 0.7-3.5-8.6 2.4-6.8 1.5-0.7zm8.8 2.5c-1.8 0-3.2-5.5-1.6-5.5s0.9 0.3 2.1 3.3c-0.1 0.1 0.8 2.2-0.5 2.2zm106.5 19.2c0.7 0 1.5-2.5 1.9-5.6 0.9-6.5 1.5-7.4 4.4-6.2 4.1 1.6 1 32.6-2.7 17.9-0.6-2.4-1.6-3.3-2.9-2.8-2.7 1.1-2.2-3.3-0.7-3.3zm-2.6 11c3.4 0-1.1 9.2-1.3 3.8 0-2.1 0.6-3.8 1.3-3.8zm0 15.1c1.5-1.9 2.7-4.6 2.7-6 0-3.3 5-9.7 6.2-7.8s-0.7 2.4-1.7 9.5c-1 7.4-3.2 11.3-4.5 7.8-0.7-1.9-1.2-2.1-2-0.9-1.1 1.8 0.7 3.6 0.6 3.6 2.6 3.1 0.9 5.4-1.8 2.4-2.8-3.3-2.8-4.3 0.5-8.6zm7.5 9.8c0.3 0.3 0.1 2.5-0.4 5-1 4.9-3 4.5-3-0.6 0-2.7 2.2-5.6 3.4-4.4zm-13.9 3.6c2.1-6.1 6.4-3.6 6.4 3.9 0 2.6 0.4 3.4 1.2 2.2 2.5-3.9 7.5 5.7-0.4 14.2-3.6 3.9-4.3 4.1-5.3 1.4-1.3-3.3 4.6-4.1 3.5-10-0.7-3.6-0.7-3.5-2.7 1.4-4.1 10.1-6.5-2.2-2.7-13.1zm-82.2-54.5c4.5 0 7.8 1.4 6.9 2.9-0.8 1.3-5.6 1.5-8.5 0.3s-1.9-3.2 1.6-3.2zm6.7 13.5c-2.4 0.1-4.8-0.5-5.2-1.2-1-1.6 1.2-1.6 6.2 0 3.3 1.1 3.2 1.1-1 1.2zm5.4-20.1c2.2-2.2 6.6-2.1 12.5 0.4 4.6 1.9 4.9 1.9 5.3-0.7 0.6-3.7 3.9-1.5 4.2 2.8 0.3 4.5 7.6 10.8 12.5 10.9 5.8 0.1 2.3 2.4 2.3 5 0 1.1-2 0.2-14.4-6.2-16.6-8.6-14.7-4.7-17-7.4-0.9-1.1-2.9-1.7-4.3-1.3-3.1 0.7-3.6-1-1.1-3.5zm0.4 15c2.3 0.4 9.3 1.3 10.9 2.7 2 1.8-2.1 1.3-6.8-0.8l-4.1-1.9zm11 11.4c-16.1-8.4 7.5-1.1 7.5 1.5 0 1.2-3.5 0.5-7.5-1.5zm9.6-4.4c1.9 0 3.4 0.7 3.4 1.5 0 1 0.5 0.9 1.6-0.1 1.2-1.2 1.2-2.1-0.2-3.7-2.4-2.9 1-2.8 4.8 0.2 5 4-2.1-1-2.1 2.6 0 3.1 3.4 1 2.3 4-1.2 3.2 10.1 9.2 6 4.3s5.3-6.1 1.5-3.6c-1.3 0.8-1.4 1.5-0.3 2.1 2.1 1.3 4.5-0.4 3.4-2.3-3.3-5.3 27.5 20.9 23.7 24.7 0.3 0-5.3 6-16.6-6-9.3-9.9-8.1-5.7-13.9-11.8-8.5-9.1-23.2-11.9-13.6-11.9zm40.2 36.7c-0.4 1.1-1.1 1-2.4-0.6-2.1-2.6-0.8-4.8 1.5-2.5-0.2 0 1.4 1.4 0.9 3.1zm-31.4-10.9c-1.5 2.4-2.8-2.4-1.9-6.4l0.8-3.4c12.3 16.6 3.5 5.9 1.1 9.8zm11 0.2c0 2.4-2.2 0.8-4.8-3.4-8.9-14.7 5.8 3.4 4.8 3.4zm-1.4 4.3c5.5 2.3 5 3.5 5.3 3.5 1.5 4.5-6.7-2.6-10-5.4l4.7 1.9zm12.7 6.7c-0.9 4.1-2.2 2.7-7.2-7.7-10.3-21.7 8.3 2.6 7.2 7.7zm-18.6 30.7c-3.2-2.6-3.5-3.3-1.7-4 1.3-0.5 2.2-0.1 2.2 1 0 2.9 5.5 2.4 5.5 4.8 0 2.2-1.7 1.7-6-1.8zm9.4 0.6c-1.3-2.1 2-5.1-0.6-3.6-1 0.6-2.9-0.4-4.7-2.4-5.3-6-11.7-4.1-12.9-12.2-0.6-4.1 2.5-1.1 4.4-1.1 0.2 0 0.1 1.2-0.2 2.6-0.6 2.1 0.3 2.8 4.9 3.6 7.9 1.3 4.3 3.5 8.5 3.5 3.1 0 3.3 0.4-4.7-6.8-2.7-2.5-3.5-2.7-2.9-1 1.9 4.8-7.3 1.3-3.5-1.1 1-0.6 1-1.4 0-2.7-3.4-4.1 10.2-4.2 13.9 0.2 1.4 1.6 1.9 1.7 2.8 0.3 1.7-2.7 1.4-3.8-0.9-3.8-2.7 0-8.3-5.1-7-6.4 1.4-1.4 6.2 5 9.4 5 3.3 0 4.4 12.9 1.5 17.6 0-0.2-6.5 10.6-8 8.3zm12.9-29.1c1.1-2.7 1.4-2.9 2.2-0.9 0.5 1.3 0.4 3.4-0.4 4.6-1.8 3.3-3.3 0.3-1.8-3.7zm3.6 31.4c-0.6 4.8-0.3 5.9-2.2 5.9-2 0-1-8.6 1-9.2 1.1-0.4 1.5 0.7 1.2 3.3zm5.2-5c1.7 6.7-6.5 8.7-3.2 4.7 0.9-1.1 1.3-2.7 0.8-3.5-1.8-2.9 0.7-9.9 2.9-8.1 3.5 3-1.9 1.5-0.5 6.9zm5.1 16.4c-1.4 0-2.9 0.8-3.2 1.7s-0.7 1.1-0.8 0.3c-0.1-2.8 5.4-8 6.9-6.5 1.9 1.9 0.3 4.5-2.9 4.5zm17-13.8c-2.9 0-0.2 3.2-6 6.1-4.7 2.4-5.6 2.6-5.6 0.9 0-2.5 5.8-8.4 8.2-8.4 4 0 3.6-6.6 5.7-4.5 1.8 1.8 0.1 5.9-2.3 5.9zm9-22.6c-2.2 5.1-1.1-5.6 0-8.2 2.2-5.1 1.1 5.6 0 8.2zm14-22.6c-0.6 0-2.3 2.5-3.8 5.5-2.5 5.1-8.8 8.1-8.8 4.1 0-0.8 0.8-1.4 1.8-1.4 2 0 2.4-10 0.5-11.9-0.6-0.6-1-0.2-0.7 0.9 0.6 2.7-2.9 13.8-5.3 16.7-3.7 4.4-1.1 18.6-5.6 13.1-1.3-1.5-1.5-10.9-0.3-15.4 0.7-2.8 0-4.1-1.3-2.1-2 3.1-3.5 0.4-1.7-3 0.9-1.7 1.8-4.3 2.1-5.8 2.2-11.6 1.7-11.1 10.2-10.3 10.2 1 21.6 9.6 12.9 9.6zm14.4-26.4c-0.8 12.2-1.8 15.4-4.6 15.4-1.1 0-1.9 0.8-1.7 1.7 0.1 0.9 0.2 3.4 0.1 3.4-0.2 2.3-3.4 2.6-2.3-0.8 4.9-15.7 10.3-46.2 8.5-19.7zm14.8 26.4c-2.4 8.9-5.5 4.6-1.2-0.8 2-2.6 2-2.5 1.2 0.8zm100.6-5.8c2.6-2.6 2.8 15.1 3.4 15.1 0.7 6-1.8 5.6-1.8 0.7 0-6.7-3.7-13.7-1.6-15.8zm-29.2-7.1c2.8-2.8 1.6-5 3.3-5 1.5 0-1.5 13.4-4.6 8.3-0.5-0.6 0.1-2.1 1.3-3.3zm-3.5-11.1c1.8-1.1 1.8 6.2 0 6.2-1.7-0.1-1.8-5.1 0-6.2zm0.4 25.8c-1.3 0.8-1.3-8.2 0-9.5s1.3 8.7 0 9.5zm-4.6 2.3c1.7 0 0.6 5.5-1.4 7.4-2.5 2.3 0.1-3.6 0.1-6.4 0-0.6 0.6-1 1.3-1zm-36.9-17.5c2.6-6.8 4.6-8 14.1-8.4 5.6-0.2 4.6 2-2.4 5.5-5 2.5-9.4 6.3-9.2 6.3-4.5 4.7-5.3 3.8-2.5-3.4zm-19.2 15.5c0 2.1-2.3 3.8-3.1 2.3-2.8-5 0.9-17.9 5.6-19.3 6.5-2 6.6-1.8 1.7 7.4-0.3 0.4-4.9 9.6-4.2 9.6zm10.6 43c-4.1-1.3-5.3-4-1.7-4 2.8 0 2 4.1 1.7 4zm1.7-21.1c-2.1 2.5-2.7 2.8-2.7 0 0-1.1 1-2.1 2.2-2.1 1.8 0 1.9 0.4 0.5 2.1zm18.6-0.8c-5.3 5-8.3 0.6-9.7 2.9-0.9 1.5-3 1.6-3.8 0.2-1.3-2.2 5.5-6.8 11.1-7.5 6.6-0.8 7.1 0 2.4 4.4zm-3.5-28.6c0 1.8-3 0.3-5.5 3.3-0.9 1.1-2.7 2-3.9 2-2.2 0 7.5-9.4 9.8-9.5 0.6 0 3.3-2.1 6.2-4.5 9.1-7.9 20.9-12.3 20.9-7.9 0 1.9-2.7 0.6-2.7 3.4s-2.9 1.4-6.5 3.3c-4.6 2.5-18.3 8.3-18.3 9.9zm9.4 12.7c-2.8-3.4-0.1-1.8 3.4-5.3 1.4-1.4 2.2-1.5 3.6-0.2s1.6 1.1 0.9-0.9c-0.9-2.7 1-5.3 4.9-6.8 1.6-0.6 2.4-0.2 2.4 1.2 0 3.9-5.1-1-4.4 4.3 0.2 1.6-1 4.6-2.6 6.5-3.5 4-5.5 4.4-8.2 1.2zm11.2 47.3-4.8-3 4.7-1.3c9.6-2.4 15.9 14.1 0.1 4.3zm24.3-1.5c-10.5 3.6-13 3.6-13.9-0.3-1.6-6.2 1.1-7.3 13.3-5.3 6.3 1 6.6 3.5 0.6 5.6zm7.2-23.3c-4.1 0.3-7.1 1.2-6.9 1.2-3.1 1.2-14 1.8-17.1 1-6.3-1.7-6.5-3.4-1.2-8.9 7.4-7.6 4.9-2.4 11.4-2.6 3.1-0.1 3.2-0.2 0.8-1.2-1.5-0.6-3.2-0.9-3.7-0.6-2.4 1.4-2.4-2.7 0-6 6-8.4 12.8-25 14.6-35.1 1-5.7 1.6-5.8 6.2-0.9 4 4.3 5.7 8 2.8 6.2-1.8-1.1-1.7-0.5 0.6 5 5 12-0.2 41.3-7.5 41.9zm11.6 29.2c-2.9 2.4-2.2-1.4-0.8-1.4 0.7 0 1.5-1.2 1.9-2.7 1-3.9 4.1-3.4 6.1 0.9 4 8.6-4 1.6-2.4 3.2-2.1-1.2-3.3-1.2-4.8 0zm8.6 26.6c-4.4-3.8-1.1-4.9 3.8-1.2 3.4 2.6 1.5 5.8-3.8 1.2zm21.3-9.7c-2.4 1.5-12.7-14.7-10.7-16.7 0.4-0.4 1.3 0.9 2 2.8 1.9 4.9 2.6 3.1 6.9 9.2 0.2 0.1 2.8 4.1 1.8 4.7zm30.4 14.7c-2.4 5.4-2.5-1.5-6.8-1.5-1 0-1.9-0.9-1.9-2 0-1.8 7.3-1.7 9.5 0.1 0.1-0.1 0.2 1.1-0.8 3.4zm16.9-20.1c-0.8 7.7-3.7 15.2-4.8 12.1-0.7-2.2-4.1-2.5-1.7 0.3 1.9 2.3 0.8 6.8-1.3 5.5-2-1.2 0.9 2.3-2 4.7-1.8 1.5-2.2 0.9-3-3.9-0.5-3.1-1.6-5.7-2.4-5.8-4-0.4-3.2-0.6-9.4-1-14.6-0.9 3.5-19.4 19-19.4h6.4l-0.8 7.5zm4.9 18.8c2.8 6.9 2.8 7.1 0.9 6.4-3.6-1.2-2.8-9.9 2.4-28.4 0.6-2.3 8.2 2.9 15.8 10.8 5.3 5.6 5.8 10 1.5 15.7-1.9 2.6-2 2.6-1.1 0.1 2.6-7.7-8 9.6-11.8 1.3-1.7-3.5-9.1-9.4-7.7-5.9zm14.8 19.7c-0.9 2.6-1 2.6-2.7-0.5-2-3.7-1.7-4.3 1.4-3.1 1.5 0.6 1.9 1.7 1.3 3.6zm1.6 24c-4.4 0-3.8-2.4 0.9-3.4 3.5-0.8 10.3-6.2 7.8-6.2-1.4 0 3.3-3.7 3.3-5.9 0-0.9-0.6-0.8-1.4 0.4-2.1 3.3-0.4-2.8-3.6 3.6-1.7 3.4-3.5 4.7-8.4 5.9-7.5 1.9-8.2 1.5-4.4-2.8 4-4.5 10.2-17 15.9-32 18.7-49 20.5-24.2 18-22.6-2.1 1.3 0.8 0.9-1.2 8.8-1.9 7.5-0.7 13.4-2.4 12.4-1.9-1.2-2.4 4.7-4.3 4.7-1.6 0-1 7.3-1 8.9l0.9-4.1c1-4.5 3.3-5.5 4-1.8 1.4 7.5-4.7 13.2-9.4 8.9-4.9-4.5-11-4.3-6.5 0.2 3.5 3.5-4.6 7.1 1 7.1 5 0 0.6-6.7 6.7-2.9 5.7 3.7-11.2 20.8-15.9 20.8zm2938.6-425.5c-17.5 9-49.1-10.2-39.2-23.7 5.6-7.7 7 0.8 31.6 15.2 10.1 5.9 10.9 6.8 7.6 8.5z"/>
  </g>
</svg>
